<?xml version="1.0" encoding="utf-8"?>
<!-- Generator: Adobe Illustrator 26.2.1, SVG Export Plug-In . SVG Version: 6.00 Build 0)  -->
<svg version="1.1" id="Layer_1" xmlns="http://www.w3.org/2000/svg" xmlns:xlink="http://www.w3.org/1999/xlink" x="0px" y="0px"
	 viewBox="0 0 111.1 122.9" style="enable-background:new 0 0 111.1 122.9;" xml:space="preserve">
<style type="text/css">
	.st0{fill-rule:evenodd;clip-rule:evenodd;fill:#BFBEBE;}
</style>
<g>
	<path class="st0" d="M97.7,20.8L97.7,20.8L97.7,20.8c3.7,0,7.1,1.5,9.5,4c2.4,2.4,3.9,5.7,3.9,9.4h0v0v75.3v0h0
		c0,3.7-1.5,7-3.9,9.5c-2.4,2.4-5.7,3.9-9.4,3.9v0h0H38.5h0v0c-3.7,0-7-1.5-9.5-3.9c-2.4-2.4-3.9-5.7-3.9-9.4h0c0-26,0-49.3,0-75.3
		v0h0c0-3.7,1.5-7,3.9-9.5c2.4-2.4,5.7-3.9,9.4-3.9v0h0C58.2,20.8,77.9,20.8,97.7,20.8L97.7,20.8z M0,75.4l0-62v0h0
		c0-3.7,1.5-7,3.9-9.5C6.4,1.5,9.7,0,13.4,0v0h0h59.2c7.7,0,8.9,10,0,10.2H13.4h0v0c-0.9,0-1.7,0.4-2.3,1c-0.6,0.6-1,1.4-1,2.3h0v0
		v3.2c0,19.6,0,39.2,0,58.8C10.2,83.6,0,84.1,0,75.4L0,75.4z M100.9,109.5V34.2v0h0c0-0.9-0.4-1.7-1-2.3c-0.6-0.6-1.4-1-2.3-1v0h0
		H38.5h0v0c-0.9,0-1.7,0.4-2.3,1c-0.6,0.6-1,1.4-1,2.3h0v0v75.3v0h0c0,0.9,0.4,1.7,1,2.3s1.4,1,2.3,1v0h0h59.2h0v0
		c0.9,0,1.7-0.4,2.3-1C100.5,111.2,100.9,110.4,100.9,109.5L100.9,109.5L100.9,109.5L100.9,109.5L100.9,109.5z"/>
</g>
</svg>
