<?xml version="1.0" encoding="utf-8"?>
<!-- Generator: Adobe Illustrator 26.2.1, SVG Export Plug-In . SVG Version: 6.00 Build 0)  -->
<svg version="1.1" id="Layer_1" xmlns="http://www.w3.org/2000/svg" xmlns:xlink="http://www.w3.org/1999/xlink" x="0px" y="0px"
	 viewBox="0 0 120.6 122.9" style="enable-background:new 0 0 120.6 122.9;" xml:space="preserve">
<style type="text/css">
	.st0{fill:#4DBFE2;}
</style>
<g>
	<g>
		<path class="st0" d="M56.9,34.8c-0.9-0.9-1.2-2.1-1.2-3.3s0.4-2.4,1.3-3.3l0.1-0.1c0.9-0.9,2-1.3,3.1-1.3s2.2,0.4,3,1.3
			c9.6,9.9,19.1,20,28.6,29.9c0.1,0.1,0.1,0.1,0.1,0.1c0.9,0.9,1.2,2.1,1.2,3.3s-0.4,2.4-1.3,3.3l-0.2,0.2
			c-9.5,9.8-19,19.6-28.5,29.4c-0.8,0.8-1.9,1.3-3,1.3c-1.1,0.1-2.2-0.4-3-1.2L57,94.6c-0.9-0.9-1.3-2.1-1.3-3.3
			c0-1.2,0.4-2.4,1.2-3.3l25.6-26.5L56.9,34.8L56.9,34.8z"/>
		<path class="st0" d="M28.8,34.8c-0.9-0.9-1.2-2.1-1.2-3.3s0.4-2.4,1.3-3.3l0.1-0.1c0.9-0.9,2-1.3,3.1-1.3c1.1,0,2.2,0.4,3,1.3
			c9.6,9.9,19.1,20,28.6,29.9c0.1,0.1,0.1,0.1,0.1,0.1c0.9,0.9,1.2,2.1,1.2,3.3s-0.4,2.4-1.3,3.3l-0.2,0.2
			C54,74.7,44.5,84.5,35,94.3c-0.8,0.8-1.9,1.3-3,1.3s-2.2-0.4-3-1.2l-0.1-0.1c-0.9-0.9-1.3-2.1-1.3-3.3c0-1.2,0.4-2.4,1.2-3.3
			l25.6-26.5L28.8,34.8L28.8,34.8z"/>
	</g>
</g>
</svg>
