<?xml version="1.0" encoding="utf-8"?>
<!-- Generator: Adobe Illustrator 26.2.1, SVG Export Plug-In . SVG Version: 6.00 Build 0)  -->
<svg version="1.1" id="Layer_1" xmlns="http://www.w3.org/2000/svg" xmlns:xlink="http://www.w3.org/1999/xlink" x="0px" y="0px"
	 viewBox="0 0 24 24" style="enable-background:new 0 0 24 24;" xml:space="preserve">
<style type="text/css">
	.st0{fill-rule:evenodd;clip-rule:evenodd;fill:#D32020;}
	.st1{opacity:0.75;fill-rule:evenodd;clip-rule:evenodd;fill:#D32020;enable-background:new    ;}
</style>
<g>
	<desc>Created with Sketch.</desc>
	
		<g id="Group" transform="translate(12.000000, 12.000000) rotate(-45.000000) translate(-12.000000, -12.000000) translate(4.000000, 4.000000)">
		<path id="Rectangle-185" class="st0" d="M1,7H15c0.6,0,1,0.4,1,1l0,0c0,0.6-0.4,1-1,1H1C0.4,9,0,8.6,0,8l0,0C0,7.4,0.4,7,1,7z"/>
		<path id="Rectangle-185-Copy" class="st1" d="M9,1V15c0,0.6-0.4,1-1,1l0,0c-0.6,0-1-0.4-1-1V1c0-0.6,0.4-1,1-1l0,0
			C8.6,0,9,0.4,9,1z"/>
	</g>
</g>
</svg>
